HIERARCHY
ROOT Hips
{
	OFFSET	0.00	0.00	0.00
	CHANNELS 6 Xposition Yposition Zposition Zrotation Xrotation Yrotation
	JOINT LeftUpperLeg
	{
		OFFSET	-0.060319	-0.072984	 0.002079
		CHANNELS 3 Zrotation Xrotation Yrotation
		JOINT LeftLowerLeg
		{
			OFFSET	 0.351798	-0.005146	-0.008011
			CHANNELS 3 Zrotation Xrotation Yrotation
			JOINT LeftFoot
			{
				OFFSET	 0.378666	 0.003778	 0.003828
				CHANNELS 3 Zrotation Xrotation Yrotation
				JOINT LeftToes
				{
					OFFSET	 0.084296	 0.003922	 0.047710
					CHANNELS 3 Zrotation Xrotation Yrotation
					End Site
					{
						OFFSET	 0.084296	 0.003922	 0.047710
					}
				}
			}
		}
	}
	JOINT RightUpperLeg
	{
		OFFSET	-0.060836	 0.072553	 0.002079
		CHANNELS 3 Zrotation Xrotation Yrotation
		JOINT RightLowerLeg
		{
			OFFSET	 0.351363	 0.018233	-0.008011
			CHANNELS 3 Zrotation Xrotation Yrotation
			JOINT RightFoot
			{
				OFFSET	 0.378545	 0.010315	 0.003824
				CHANNELS 3 Zrotation Xrotation Yrotation
				JOINT RightToes
				{
					OFFSET	 0.084392	-0.002027	 0.047660
					CHANNELS 3 Zrotation Xrotation Yrotation
					End Site
					{
						OFFSET	 0.084392	-0.002027	 0.047660
					}
				}
			}
		}
	}
	JOINT Character1_Spine
	{
		OFFSET	 0.022713	 0.000080	 0.008181
		CHANNELS 3 Zrotation Xrotation Yrotation
		JOINT Spine
		{
			OFFSET	 0.091343	 0.000000	 0.001755
			CHANNELS 3 Zrotation Xrotation Yrotation
			JOINT Chest
			{
				OFFSET	 0.087667	 0.000000	-0.000304
				CHANNELS 3 Zrotation Xrotation Yrotation
				JOINT LeftShoulder
				{
					OFFSET	 0.122367	-0.042227	-0.001395
					CHANNELS 3 Zrotation Xrotation Yrotation
					JOINT LeftUpperArm
					{
						OFFSET	 0.055437	-0.000001	 0.000000
						CHANNELS 3 Zrotation Xrotation Yrotation
						JOINT LeftLowerArm
						{
							OFFSET	 0.233777	-0.000011	 0.000017
							CHANNELS 3 Zrotation Xrotation Yrotation
							JOINT LeftHand
							{
								OFFSET	 0.162482	 0.000000	-0.000001
								CHANNELS 3 Zrotation Xrotation Yrotation
								JOINT LeftIndexProximal
								{
									OFFSET	 0.080750	 0.001428	 0.025713
									CHANNELS 3 Zrotation Xrotation Yrotation
									JOINT LeftIndexIntermediate
									{
										OFFSET	 0.024260	 0.001187	 0.002507
										CHANNELS 3 Zrotation Xrotation Yrotation
										JOINT LeftIndexDistal
										{
											OFFSET	 0.016097	 0.000458	 0.000118
											CHANNELS 3 Zrotation Xrotation Yrotation
											End Site
											{
												OFFSET	 0.016097	 0.000458	 0.000118
											}
										}
									}
								}
								JOINT LeftMiddleProximal
								{
									OFFSET	 0.080696	 0.006021	 0.005822
									CHANNELS 3 Zrotation Xrotation Yrotation
									JOINT LeftMiddleIntermediate
									{
										OFFSET	 0.025063	-0.003793	 0.001482
										CHANNELS 3 Zrotation Xrotation Yrotation
										JOINT LeftMiddleDistal
										{
											OFFSET	 0.019431	-0.000162	-0.000068
											CHANNELS 3 Zrotation Xrotation Yrotation
											End Site
											{
												OFFSET	 0.019431	-0.000162	-0.000068
											}
										}
									}
								}
								JOINT LeftLittleProximal
								{
									OFFSET	 0.065753	 0.002283	-0.027836
									CHANNELS 3 Zrotation Xrotation Yrotation
									JOINT LeftLittleIntermediate
									{
										OFFSET	 0.018097	 0.000014	 0.000133
										CHANNELS 3 Zrotation Xrotation Yrotation
										JOINT LeftLittleDistal
										{
											OFFSET	 0.013911	-0.000247	 0.000003
											CHANNELS 3 Zrotation Xrotation Yrotation
											End Site
											{
												OFFSET	 0.013911	-0.000247	 0.000003
											}
										}
									}
								}
								JOINT LeftRingProximal
								{
									OFFSET	 0.076793	 0.006246	-0.012626
									CHANNELS 3 Zrotation Xrotation Yrotation
									JOINT LeftRingIntermediate
									{
										OFFSET	 0.023683	-0.001098	-0.000754
										CHANNELS 3 Zrotation Xrotation Yrotation
										JOINT LeftRingDistal
										{
											OFFSET	 0.015907	 0.000860	 0.000167
											CHANNELS 3 Zrotation Xrotation Yrotation
											End Site
											{
												OFFSET	 0.015907	 0.000860	 0.000167
											}
										}
									}
								}
								JOINT LeftThumbProximal
								{
									OFFSET	 0.024761	-0.014236	 0.018266
									CHANNELS 3 Zrotation Xrotation Yrotation
									JOINT LeftThumbIntermediate
									{
										OFFSET	 0.032146	-0.001523	 0.001986
										CHANNELS 3 Zrotation Xrotation Yrotation
										JOINT LeftThumbDistal
										{
											OFFSET	 0.017566	-0.000085	-0.001004
											CHANNELS 3 Zrotation Xrotation Yrotation
											End Site
											{
												OFFSET	 0.017566	-0.000085	-0.001004
											}
										}
									}
								}
							}
						}
					}
				}
				JOINT Neck
				{
					OFFSET	 0.156851	-0.000286	 0.008298
					CHANNELS 3 Zrotation Xrotation Yrotation
					JOINT Head
					{
						OFFSET	 0.078083	 0.000000	-0.005534
						CHANNELS 3 Zrotation Xrotation Yrotation
						End Site
						{
							OFFSET	 0.078083	 0.000000	-0.005534
						}
					}
				}
				JOINT RightShoulder
				{
					OFFSET	 0.122455	 0.041994	-0.000150
					CHANNELS 3 Zrotation Xrotation Yrotation
					JOINT RightUpperArm
					{
						OFFSET	 0.055437	 0.000001	 0.000000
						CHANNELS 3 Zrotation Xrotation Yrotation
						JOINT RightLowerArm
						{
							OFFSET	 0.233779	 0.000012	 0.000017
							CHANNELS 3 Zrotation Xrotation Yrotation
							JOINT RightHand
							{
								OFFSET	 0.162480	-0.000002	-0.000001
								CHANNELS 3 Zrotation Xrotation Yrotation
								JOINT RightIndexProximal
								{
									OFFSET	 0.077459	-0.023877	 0.024774
									CHANNELS 3 Zrotation Xrotation Yrotation
									JOINT RightIndexIntermediate
									{
										OFFSET	 0.024233	 0.002008	-0.002230
										CHANNELS 3 Zrotation Xrotation Yrotation
										JOINT RightIndexDistal
										{
											OFFSET	 0.015886	 0.002643	 0.000001
											CHANNELS 3 Zrotation Xrotation Yrotation
											End Site
											{
												OFFSET	 0.015886	 0.002643	 0.000001
											}
										}
									}
								}
								JOINT RightMiddleProximal
								{
									OFFSET	 0.077341	-0.024111	 0.004360
									CHANNELS 3 Zrotation Xrotation Yrotation
									JOINT RightMiddleIntermediate
									{
										OFFSET	 0.025355	-0.001169	-0.000680
										CHANNELS 3 Zrotation Xrotation Yrotation
										JOINT RightMiddleDistal
										{
											OFFSET	 0.019416	 0.000705	-0.000417
											CHANNELS 3 Zrotation Xrotation Yrotation
											End Site
											{
												OFFSET	 0.019416	 0.000705	-0.000417
											}
										}
									}
								}
								JOINT RightLittleProximal
								{
									OFFSET	 0.065019	-0.010365	-0.027722
									CHANNELS 3 Zrotation Xrotation Yrotation
									JOINT RightLittleIntermediate
									{
										OFFSET	 0.018098	 0.000052	-0.000144
										CHANNELS 3 Zrotation Xrotation Yrotation
										JOINT RightLittleDistal
										{
											OFFSET	 0.013886	-0.000828	 0.000267
											CHANNELS 3 Zrotation Xrotation Yrotation
											End Site
											{
												OFFSET	 0.013886	-0.000828	 0.000267
											}
										}
									}
								}
								JOINT RightRingProximal
								{
									OFFSET	 0.074304	-0.019655	-0.013711
									CHANNELS 3 Zrotation Xrotation Yrotation
									JOINT RightRingIntermediate
									{
										OFFSET	 0.023458	 0.003508	-0.000008
										CHANNELS 3 Zrotation Xrotation Yrotation
										JOINT RightRingDistal
										{
											OFFSET	 0.015893	-0.000379	-0.001033
											CHANNELS 3 Zrotation Xrotation Yrotation
											End Site
											{
												OFFSET	 0.015893	-0.000379	-0.001033
											}
										}
									}
								}
								JOINT RightThumbProximal
								{
									OFFSET	 0.026339	 0.004527	 0.020861
									CHANNELS 3 Zrotation Xrotation Yrotation
									JOINT RightThumbIntermediate
									{
										OFFSET	 0.032030	-0.000602	 0.001128
										CHANNELS 3 Zrotation Xrotation Yrotation
										JOINT RightThumbDistal
										{
											OFFSET	 0.017586	-0.000153	 0.000511
											CHANNELS 3 Zrotation Xrotation Yrotation
											End Site
											{
												OFFSET	 0.017586	-0.000153	 0.000511
											}
										}
									}
								}
							}
						}
					}
				}
			}
		}
	}
}
MOTION
Frames:    4
Frame Time: 0.01666667
 0.043089	-0.057423	 0.862891	 97.686000	-0.009185	-88.620130	-178.480800	 2.027924	-0.272010	 3.110768	-3.053833	 19.946030	-7.545961	-1.446854	-45.593250	-2.826674	-1.476236	-62.555960	 170.008500	 5.756292	-5.011971	-0.393987	-0.434872	 20.010010	 9.004900	-6.664942	-40.024570	 0.003016	-0.006121	-62.519590	 0.203542	 0.000000	-4.902169	 0.290557	-1.403715	 9.680555	 1.458757	-0.830913	 12.255410	-92.919500	 18.029540	 1.691573	-70.290990	 9.775460	 16.584120	-1.341615	-6.723084	-19.714760	 16.272450	-18.006500	-5.370918	-2.685999	 11.479670	 13.861230	-17.217630	-0.385394	-0.516139	-17.353200	-0.466277	 0.628653	-3.826292	 8.297510	 8.630470	-31.067460	-2.331621	 0.982460	-26.366530	-2.391591	 7.949260	-15.800630	-14.875510	 0.716058	-9.541333	 4.340979	 7.344800	-34.314000	-2.294957	 15.594260	-12.938280	-9.362944	 4.854489	-33.381640	-0.543344	 10.437350	-20.829100	-5.046880	 7.521280	 111.736600	 49.854150	-126.323500	-19.032800	 0.543840	-9.628754	-25.348660	-0.976149	-0.758772	-3.768951	-1.133749	-22.560500	-2.287359	-0.606581	 8.402207	 89.662010	-18.084890	-0.891765	 67.712980	-2.773127	 18.533320	-0.422448	 8.533673	-19.699070	 8.292443	 0.179229	 3.650749	-174.971400	-9.551239	 171.528900	-31.897250	-0.765024	-3.927476	-3.656667	-3.353687	-1.373838	 176.698200	-7.544124	 175.926900	-41.572670	-0.978734	-7.134726	-51.993680	 1.487861	-5.715821	-167.032100	-28.279910	-175.115900	-9.062985	 0.683527	-8.047198	-38.461980	 5.871815	-21.148140	-158.412400	-25.410050	-172.808700	-14.724370	-1.090109	-12.547320	-43.814310	 3.111558	-12.954370	 49.688430	 53.765790	-56.530760	-20.810670	 3.803959	 8.623093	-30.770470	-2.362319	 9.390638
 0.043089	-0.057424	 0.862837	 97.686000	-0.009191	-88.620120	-178.485100	 2.065665	-0.279631	 3.106173	-3.051134	 19.963740	-7.550969	-1.486201	-45.606910	-2.826674	-1.476236	-62.555960	 170.006100	 5.723320	-5.021222	-0.382530	-0.438454	 20.026580	 9.004775	-6.628057	-40.037340	 0.003016	-0.006121	-62.519590	 0.203542	 0.000000	-4.902169	 0.291832	-1.403379	 9.696256	 1.457569	-0.831258	 12.176900	-92.919430	 18.029550	 1.691553	-70.298810	 9.794925	 16.494510	-1.340510	-6.734194	-19.682000	 16.262890	-18.017730	-5.418751	-2.686010	 11.479670	 13.861210	-17.217500	-0.385399	-0.516139	-17.353270	-0.466274	 0.628652	-3.826330	 8.297519	 8.630504	-31.067510	-2.331622	 0.982466	-26.366490	-2.391585	 7.949251	-15.800590	-14.875500	 0.716049	-9.541333	 4.340979	 7.344800	-34.313970	-2.294947	 15.594250	-12.938270	-9.362941	 4.854488	-33.381640	-0.543344	 10.437350	-20.829120	-5.046885	 7.521288	 111.736600	 49.854140	-126.323500	-19.032780	 0.543833	-9.628749	-25.348680	-0.976149	-0.758776	-3.769730	-1.131891	-22.532210	-2.288372	-0.606303	 8.425044	 89.662080	-18.084890	-0.891764	 67.713210	-2.792796	 18.540600	-0.414867	 8.534451	-19.803290	 8.294356	 0.202028	 3.635222	-174.971400	-9.551244	 171.529000	-31.897120	-0.765035	-3.927461	-3.656680	-3.353687	-1.373840	 176.698100	-7.544122	 175.926900	-41.572670	-0.978734	-7.134726	-51.993700	 1.487868	-5.715825	-167.032100	-28.279910	-175.116000	-9.062936	 0.683517	-8.047173	-38.461980	 5.871814	-21.148140	-158.412500	-25.410040	-172.808700	-14.724380	-1.090107	-12.547320	-43.814310	 3.111558	-12.954370	 49.688380	 53.765860	-56.530780	-20.810670	 3.803959	 8.623093	-30.770500	-2.362329	 9.390651
 0.043089	-0.057423	 0.862791	 97.685990	-0.009193	-88.620120	-178.483400	 2.083766	-0.288227	 3.096905	-3.048412	 19.981770	-7.550525	-1.506752	-45.618700	-2.826674	-1.476236	-62.555960	 170.004200	 5.695517	-5.029419	-0.373103	-0.441474	 20.040920	 9.004820	-6.597002	-40.048130	 0.003016	-0.006121	-62.519560	 0.203542	 0.000000	-4.902169	 0.293020	-1.403120	 9.710142	 1.456565	-0.831530	 12.107800	-92.919460	 18.029550	 1.691537	-70.305570	 9.811776	 16.417390	-1.339536	-6.743679	-19.653620	 16.254220	-18.027760	-5.461957	-2.685966	 11.479670	 13.861250	-17.217520	-0.385396	-0.516136	-17.353250	-0.466277	 0.628653	-3.826334	 8.297513	 8.630486	-31.067530	-2.331623	 0.982469	-26.366480	-2.391585	 7.949252	-15.800570	-14.875500	 0.715995	-9.541341	 4.340975	 7.344800	-34.313930	-2.294937	 15.594230	-12.938240	-9.362949	 4.854437	-33.381640	-0.543344	 10.437350	-20.829140	-5.046885	 7.521294	 111.736600	 49.854160	-126.323500	-19.032800	 0.543840	-9.628754	-25.348680	-0.976149	-0.758776	-3.770519	-1.130253	-22.507680	-2.289232	-0.606117	 8.445737	 89.662120	-18.084890	-0.891729	 67.713320	-2.810216	 18.547130	-0.408084	 8.535052	-19.892170	 8.295853	 0.222144	 3.621499	-174.971300	-9.551231	 171.528900	-31.897230	-0.765026	-3.927475	-3.656648	-3.353689	-1.373837	 176.698200	-7.544117	 175.926900	-41.572690	-0.978733	-7.134728	-51.993720	 1.487867	-5.715828	-167.032000	-28.279910	-175.116000	-9.062977	 0.683526	-8.047194	-38.461950	 5.871801	-21.148120	-158.412400	-25.410050	-172.808700	-14.724350	-1.090112	-12.547310	-43.814290	 3.111554	-12.954370	 49.688380	 53.765860	-56.530780	-20.810700	 3.803955	 8.623108	-30.770500	-2.362329	 9.390651
 0.043089	-0.057424	 0.862747	 97.685960	-0.009218	-88.620130	-178.491200	 2.123610	-0.292699	 3.098413	-3.046801	 19.993290	-7.558386	-1.546776	-45.629010	-2.826674	-1.476236	-62.555960	 170.002100	 5.669083	-5.037001	-0.363603	-0.444392	 20.054600	 9.004558	-6.567344	-40.058580	 0.003016	-0.006121	-62.519620	 0.203542	 0.000000	-4.902169	 0.294259	-1.402918	 9.725671	 1.455527	-0.831833	 12.030020	-92.919480	 18.029550	 1.691545	-70.313310	 9.829998	 16.333060	-1.338369	-6.753966	-19.622700	 16.244080	-18.038750	-5.512196	-2.686009	 11.479680	 13.861260	-17.217420	-0.385394	-0.516138	-17.353310	-0.466274	 0.628653	-3.826334	 8.297513	 8.630486	-31.067490	-2.331621	 0.982463	-26.366550	-2.391592	 7.949260	-15.800590	-14.875510	 0.716001	-9.541405	 4.340969	 7.344834	-34.313990	-2.294952	 15.594250	-12.938300	-9.362955	 4.854448	-33.381600	-0.543337	 10.437330	-20.829150	-5.046886	 7.521296	 111.736600	 49.854130	-126.323500	-19.032800	 0.543840	-9.628754	-25.348680	-0.976149	-0.758776	-3.771438	-1.128450	-22.480720	-2.290253	-0.605946	 8.469924	 89.662030	-18.084890	-0.891760	 67.713620	-2.829721	 18.554460	-0.400371	 8.535720	-19.989000	 8.297322	 0.244656	 3.606160	-174.971300	-9.551231	 171.529000	-31.897200	-0.765035	-3.927470	-3.656648	-3.353689	-1.373837	 176.698300	-7.544119	 175.926900	-41.572630	-0.978739	-7.134721	-51.993720	 1.487865	-5.715825	-167.032000	-28.279910	-175.116000	-9.062943	 0.683518	-8.047174	-38.461900	 5.871781	-21.148090	-158.412400	-25.410040	-172.808700	-14.724400	-1.090104	-12.547330	-43.814230	 3.111536	-12.954340	 49.688430	 53.765770	-56.530710	-20.810660	 3.803960	 8.623089	-30.770470	-2.362319	 9.390638
